<svg xmlns="http://www.w3.org/2000/svg" xmlns:xlink="http://www.w3.org/1999/xlink" xmlns:lucid="lucid" width="1222" height="982"><g transform="translate(-50 -419)" lucid:page-tab-id="0_0"><path d="M0 0h1500v1500H0z" fill="#fff"/><path d="M268.38 495.18l-2.85 4.4a2.83 2.83 0 0 0 2.4 4.38l22.6-.17a3.13 3.13 0 0 0 2.53-4.95l-3.6-5.1a.3.3 0 0 0-.33-.1l-.2.06" stroke="#000" stroke-width="3" fill="#ffd9d9"/><path d="M263.26 472.25s.97-1.72 1.4-2.4c.45-.67.5-1.05 1.67-2.35 1.2-1.26 2.3-2.27 3.86-3.1 1.6-.9 2.47-1.73 5.03-2.02 2.56-.34 3.32-.38 3.32-.38l19.45.06a6 6 0 0 1 5.98 6.02v5.2a4.72 4.72 0 0 1-4.75 4.7l-4.72-.02s.18 1.47.18 2.35c0 .94.08 1.86-.2 3.25-.27 1.38-.52 2.6-1.27 4.28-.75 1.68-1.46 2.94-2 3.65-.56.76-.93 1.26-2.07 2.36-1.13 1.13-1.8 1.68-3.1 2.4-1.3.75-2.06 1.2-3 1.46-.95.3-1.25.5-2.76.67-1.5.13-2.48.2-3.5.13-1-.13-2.13-.25-3-.6-.93-.33-2.45-1-3.3-1.5-.87-.5-.95-.34-2.13-1.35-1.17-1-1.47-.92-2.48-2.35-1.05-1.38-2-2.7-2.6-4.28-.6-1.6-1.26-3.9-1.26-3.9" stroke="#000" stroke-width="3" fill="#ffd9d9"/><path d="M272.67 475.86s.42-.67.8-1.05c.42-.37.88-.75 1.42-1.08.54-.34 1-.6 1.67-.76.72-.2 1.9-.25 1.9-.25s1.3.1 2 .47c.77.34 1.73.84 2.36 1.6.63.8.84 1.1 1.14 1.68.33.63.54.96.75 1.76.17.8.3 1.52.3 1.94 0 .47.04.76-.05 1.4-.12.66-.04.8-.3 1.46-.2.67-.16.76-.58 1.47-.4.7-.43.88-.85 1.4-.46.53-.6.74-1.1 1.12-.54.37-.66.54-1.42.83-.75.34-.88.42-1.47.5-.54.1-.8.1-1.3.1-.55-.05-.67 0-1.26-.18-.55-.17-1.22-.42-1.22-.42s-.42-.2-.84-.5-.46-.26-.96-.8c-.5-.6-.72-.63-1.14-1.43l-.38-.8" stroke="#000" stroke-width="3" fill="#ffd9d9"/><use xlink:href="#a" transform="matrix(1,0,0,1,232,509) translate(23.249348958333336 28.08376736111111)"/><path d="M528 581c0 19.32-15.68 35-35 35s-35-15.68-35-35 15.68-35 35-35 35 15.68 35 35z" stroke="#000" stroke-width="3" fill="#ffdda6"/><path d="M458 582.82h7.35l11.06-18.4 25.84 36.8 18.4-18.4H528" stroke="#000" stroke-width="3" fill="none"/><use xlink:href="#b" transform="matrix(1,0,0,1,428,621) translate(65 21.52777777777778)"/><use xlink:href="#c" transform="matrix(1,0,0,1,428,621) translate(31.574435763888893 53.79340277777778)"/><path d="M1122.38 1153.18l-2.85 4.4a2.83 2.83 0 0 0 2.4 4.38l22.6-.17a3.13 3.13 0 0 0 2.53-4.95l-3.6-5.1a.3.3 0 0 0-.33-.1l-.2.06" stroke="#000" stroke-width="3" fill="#ffd9d9"/><path d="M1117.26 1130.25s.97-1.72 1.4-2.4c.45-.67.5-1.05 1.67-2.35 1.2-1.26 2.3-2.27 3.86-3.1 1.6-.9 2.47-1.73 5.03-2.02 2.56-.34 3.32-.38 3.32-.38l19.45.06a6 6 0 0 1 5.98 6.02v5.2a4.72 4.72 0 0 1-4.75 4.7l-4.72-.02s.18 1.47.18 2.35c0 .94.08 1.86-.2 3.25-.27 1.38-.52 2.6-1.27 4.28-.75 1.68-1.46 2.94-2 3.65-.56.76-.93 1.26-2.07 2.36-1.13 1.13-1.8 1.68-3.1 2.4-1.3.75-2.06 1.2-3 1.46-.95.3-1.25.5-2.76.67-1.5.13-2.48.2-3.5.13-1-.13-2.13-.25-3-.6-.93-.33-2.45-1-3.3-1.5-.87-.5-.95-.34-2.13-1.35-1.17-1-1.47-.92-2.48-2.35-1.05-1.38-2-2.7-2.6-4.28-.6-1.6-1.26-3.9-1.26-3.9" stroke="#000" stroke-width="3" fill="#ffd9d9"/><path d="M1126.67 1133.86s.42-.67.8-1.05c.42-.37.88-.75 1.42-1.08.54-.34 1-.6 1.67-.76.72-.2 1.9-.25 1.9-.25s1.3.1 2 .47c.77.34 1.73.84 2.36 1.6.63.8.84 1.1 1.14 1.68.33.63.54.96.75 1.76.17.8.3 1.52.3 1.94 0 .47.04.76-.05 1.4-.12.66-.04.8-.3 1.46-.2.67-.16.76-.58 1.47-.4.7-.43.88-.85 1.4-.46.53-.6.74-1.1 1.12-.54.37-.66.54-1.42.83-.75.34-.88.42-1.47.5-.54.1-.8.1-1.3.1-.55-.05-.67 0-1.26-.18-.55-.17-1.22-.42-1.22-.42s-.42-.2-.84-.5-.46-.26-.96-.8c-.5-.6-.72-.63-1.14-1.43l-.38-.8" stroke="#000" stroke-width="3" fill="#ffd9d9"/><use xlink:href="#d" transform="matrix(1,0,0,1,1086,1167) translate(21.01410590277778 28.08376736111111)"/><path d="M531.5 581H606a6 6 0 0 1 6 6v41.98" stroke="#140eb6" stroke-width="4" fill="none"/><path d="M531.55 582.98h-2.2l.15-1.98-.14-1.98h2.2zM613.98 631.26l-.8-.2L612 631l-1.17.1-.8.18v-2.33h3.95z" stroke="#140eb6" stroke-width=".05" fill="#140eb6"/><path d="M612 673.02v30.74" stroke="#140eb6" stroke-width="4" fill="none"/><path d="M610.83 670.93l1.17.1 1.17-.1.8-.2v2.34h-3.95v-2.34z" stroke="#140eb6" stroke-width=".05" fill="#140eb6"/><path d="M612 720.02l-4.63-14.26h9.26z" stroke="#140eb6" stroke-width="4" fill="#140eb6"/><path d="M612 787.5V869a6 6 0 0 0 6 6h20.98" stroke="#140eb6" stroke-width="4" fill="none"/><path d="M612 785.5l1.98-.14v2.2H610v-2.23zM641.07 873.83l-.1 1.17.1 1.17.2.8h-2.34v-3.95h2.34z" stroke="#140eb6" stroke-width=".05" fill="#140eb6"/><path d="M683.02 875h20.54" stroke="#140eb6" stroke-width="4" fill="none"/><path d="M683.07 876.98h-2.34l.2-.8.1-1.18-.1-1.17-.2-.8h2.34z" stroke="#140eb6" stroke-width=".05" fill="#140eb6"/><path d="M719.83 875l-14.27 4.63v-9.26z" stroke="#140eb6" stroke-width="4" fill="#140eb6"/><path d="M751.7 875h41.28M751.75 875h-5.05" stroke="#140eb6" stroke-width="4" fill="none"/><path d="M795.07 873.83l-.1 1.17.1 1.17.2.8h-2.34v-3.95h2.34z" stroke="#140eb6" stroke-width=".05" fill="#140eb6"/><path d="M837.02 875h25.63a.1.1 0 0 1 .1.1.1.1 0 0 0 .12.13h4.9" stroke="#140eb6" stroke-width="4" fill="none"/><path d="M837.07 876.98h-2.34l.2-.8.1-1.18-.1-1.17-.2-.8h2.34z" stroke="#140eb6" stroke-width=".05" fill="#140eb6"/><path d="M884.03 875.23l-14.27 4.63v-9.27z" stroke="#140eb6" stroke-width="4" fill="#140eb6"/><path d="M1064.83 841.02v53.5a.02.02 0 0 1-.02.03.02.02 0 0 0-.02.03v32.77" stroke="#140eb6" stroke-width="4" fill="none"/><path d="M1063.65 838.93l1.18.1 1.17-.1.8-.2v2.34h-3.95v-2.34z" stroke="#140eb6" stroke-width=".05" fill="#140eb6"/><path d="M1064.78 943.62l-4.63-14.27h9.27z" stroke="#140eb6" stroke-width="4" fill="#140eb6"/><path d="M934 765.98v-32a6 6 0 0 1 6-6h118.83a6 6 0 0 1 6 6v63" stroke="#140eb6" stroke-width="4" fill="none"/><path d="M935.98 768l-2-.03-1.96.12v-2.18H936zM1066.8 799.26l-.8-.2-1.17-.08-1.18.1-.8.18v-2.33h3.95z" stroke="#140eb6" stroke-width=".05" fill="#140eb6"/><path d="M381 547.02v29.87a6 6 0 0 0 6 6h50.64" stroke="#140eb6" stroke-width="4" fill="none"/><path d="M379.83 544.93l1.17.1 1.17-.1.8-.2v2.34h-3.95v-2.34z" stroke="#140eb6" stroke-width=".05" fill="#140eb6"/><path d="M452.63 582.9l-13 7.5v-15z" stroke="#140eb6" stroke-width="4" fill="#140eb6"/><path d="M307.48 469.5H375a6 6 0 0 1 6 6V503" stroke="#140eb6" stroke-width="4" fill="none"/><path d="M307.53 471.5h-2.05v-3.47l-.03-.5h2.08zM382.98 505.26l-.8-.2L381 505l-1.17.1-.8.2v-2.35h3.95z" stroke="#140eb6" stroke-width=".05" fill="#140eb6"/><path d="M239.42 483h-32.4" stroke="#140eb6" stroke-width="4" fill="none"/><path d="M255.68 483l-14.26 4.63v-9.26z" stroke="#140eb6" stroke-width="4" fill="#140eb6"/><path d="M207.07 484.98h-2.33l.2-.8.08-1.18-.1-1.17-.18-.8h2.33z" stroke="#140eb6" stroke-width=".05" fill="#140eb6"/><path d="M162.98 483H82" stroke="#140eb6" stroke-width="4" fill="none"/><path d="M165.07 481.83l-.1 1.17.1 1.17.2.8h-2.34v-3.95h2.33z" stroke="#140eb6" stroke-width=".05" fill="#140eb6"/><path d="M82.05 483H80M934 940.98v52" stroke="#140eb6" stroke-width="4" fill="none"/><path d="M935.98 941.03H932v-2.08l2 .03 1.96-.12zM935.98 995.26l-.8-.2L934 995l-1.17.1-.8.18v-2.33h3.95z" stroke="#140eb6" stroke-width=".05" fill="#140eb6"/><path d="M934 1037.02v92.9a6 6 0 0 0 6 6h153.94" stroke="#140eb6" stroke-width="4" fill="none"/><path d="M932.83 1034.93l1.17.1 1.17-.1.8-.2v2.34h-3.95v-2.34z" stroke="#140eb6" stroke-width=".05" fill="#140eb6"/><path d="M1110.2 1135.92l-14.26 4.63v-9.27z" stroke="#140eb6" stroke-width="4" fill="#140eb6"/><path d="M586.42 766.3H572.1m-14.33 0H529.1m-14.3 0h-28.67m-14.32 0h-28.65m-14.32 0h-28.66m-14.32 0H357.2m-14.33 0H314.2m-14.3 0h-28.67m-14.32 0h-28.65m-14.32 0h-28.66m-14.32 0h-14.33M586.38 766.3h4.54" stroke="#008a0e" stroke-width="3" fill="none"/><path d="M140.85 766.3l14.27-4.63v9.27z" stroke="#008a0e" stroke-width="3" fill="#008a0e"/><path d="M1161.48 1127.5h32a6 6 0 0 0 6-6V1070a6 6 0 0 0-6-6H499a6 6 0 0 1-6-6v-34.98" stroke="#140eb6" stroke-width="4" fill="none"/><path d="M1161.53 1129.5h-2.06v-3.47l-.02-.5h2.08zM491.83 1020.93l1.17.1 1.17-.1.8-.2v2.34h-3.95v-2.34z" stroke="#140eb6" stroke-width=".05" fill="#140eb6"/><path d="M493 978.98V640.24" stroke="#140eb6" stroke-width="4" fill="none"/><path d="M494.98 981.26l-.8-.2L493 981l-1.17.1-.8.18v-2.33h3.95z" stroke="#140eb6" stroke-width=".05" fill="#140eb6"/><path d="M493 623.98l4.63 14.26h-9.26z" stroke="#140eb6" stroke-width="4" fill="#140eb6"/><path d="M1087.5 973c0 11.83-10.28 21.42-22.88 21.42-12.67 0-22.96-9.6-22.96-21.42 0-11.83 10.3-21.42 22.96-21.42 12.6 0 22.9 9.6 22.9 21.42z" stroke="#000" stroke-width="3" fill="#dedeff"/><path d="M1097.17 942.55L1032 1008" stroke="#000" stroke-width="3" fill="none"/><path d="M1102 938l-3.08 9.66-7.07-6.16z" stroke="#000" stroke-width="3"/><path d="M1041.66 974.12h4.83l7.2-11.27 16.94 22.54 12.04-11.28h4.83" stroke="#000" stroke-width="3" fill="none"/><use xlink:href="#e" transform="matrix(1,0,0,1,1002,1013) translate(65 21.52777777777778)"/><use xlink:href="#f" transform="matrix(1,0,0,1,1002,1013) translate(31.221788194444443 53.79340277777778)"/><path d="M892 790.48v126c0 11.6 18.8 21 42 21s42-9.4 42-21v-126c0-11.6-18.8-21-42-21s-42 9.4-42 21z" stroke="#000" stroke-width="3" fill="#fff7a1"/><use xlink:href="#g" transform="matrix(1,0,0,1,892,942.475) translate(42 21.52777777777778)"/><use xlink:href="#h" transform="matrix(1,0,0,1,892,942.475) translate(12.133463541666668 53.79340277777778)"/><path d="M724 867a6 6 0 0 1 6-6h16a6 6 0 0 1 6 6v16a6 6 0 0 1-6 6h-16a6 6 0 0 1-6-6z" fill="none"/><path d="M726.8 868v14l10.2-7zm10.2 7h2zm2 0l10.2-7v14z" stroke="#000" fill="#cbc2a3"/><use xlink:href="#i" transform="matrix(1,0,0,1,704,894) translate(5.788194444444446 28.08376736111111)"/><path d="M640 756c0 15.46-12.54 28-28 28s-28-12.54-28-28 12.54-28 28-28 28 12.54 28 28z" stroke="#000" stroke-width="3" fill="#b8f5ed"/><path d="M585.8 745.7h42.38l-25.3 10.58 25.3 10.64-42.4-.62" stroke="#000" stroke-width="3" fill="none"/><use xlink:href="#j" transform="matrix(1,0,0,1,554,789) translate(58 21.52777777777778)"/><use xlink:href="#k" transform="matrix(1,0,0,1,554,789) translate(24.238064236111114 53.79340277777778)"/><path d="M921.02 497h256.24" stroke="#140eb6" stroke-width="4" fill="none"/><path d="M921.07 498.98h-2.34l.2-.8.1-1.18-.1-1.17-.2-.8h2.34z" stroke="#140eb6" stroke-width=".05" fill="#140eb6"/><path d="M1193.53 497l-14.27 4.63v-9.26z" stroke="#140eb6" stroke-width="4" fill="#140eb6"/><path d="M493 542.5V503a6 6 0 0 1 6-6h377.98" stroke="#140eb6" stroke-width="4" fill="none"/><path d="M494.98 544.64l-1.98-.14-1.98.14v-2.2h3.96zM879.07 495.83l-.1 1.17.1 1.17.2.8h-2.34v-3.95h2.34z" stroke="#140eb6" stroke-width=".05" fill="#140eb6"/><path d="M567.3 745.7h-14.33m-14.32 0H510m-14.33 0H467m-14.3 0h-28.67m-14.32 0h-28.65m-14.32 0h-28.66m-14.32 0H295.1m-14.33 0H252.1m-14.3 0h-28.67m-14.32 0h-28.65m-14.32 0H137.5" stroke="#008a0e" stroke-width="3" fill="none"/><path d="M583.07 745.7l-14.27 4.63v-9.27z" stroke="#008a0e" stroke-width="3" fill="#008a0e"/><path d="M137.54 745.7H136" stroke="#008a0e" stroke-width="3" fill="none"/><path d="M1067 997.7V1233a6 6 0 0 0 6 6h27.98" stroke="#140eb6" stroke-width="4" fill="none"/><path d="M1068.97 997.76h-3.94v-1.85h.75l3.2-.5zM1103.07 1237.83l-.1 1.17.1 1.17.2.8h-2.34v-3.94h2.34z" stroke="#140eb6" stroke-width=".05" fill="#140eb6"/><path d="M1145.02 1239h32.24" stroke="#140eb6" stroke-width="4" fill="none"/><path d="M1145.07 1240.97h-2.34l.2-.8.1-1.17-.1-1.17-.2-.8h2.34z" stroke="#140eb6" stroke-width=".05" fill="#140eb6"/><path d="M1193.53 1239l-14.27 4.63v-9.27z" stroke="#140eb6" stroke-width="4" fill="#140eb6"/><path d="M180.76 466.24a6 6 0 0 1 8.48 0l12.52 12.52a6 6 0 0 1 0 8.48l-12.52 12.52a6 6 0 0 1-8.48 0l-12.52-12.52a6 6 0 0 1 0-8.48z" stroke="#140eb6" stroke-width="3" fill="#fff"/><use xlink:href="#l" transform="matrix(1,0,0,1,169,467) translate(11.48568576388889 24.02777777777778)"/><path d="M376.76 508.24a6 6 0 0 1 8.48 0l12.52 12.52a6 6 0 0 1 0 8.48l-12.52 12.52a6 6 0 0 1-8.48 0l-12.52-12.52a6 6 0 0 1 0-8.48z" stroke="#140eb6" stroke-width="3" fill="#fff"/><use xlink:href="#m" transform="matrix(1,0,0,1,365,509) translate(9.228741319444444 24.02777777777778)"/><path d="M607.76 634.24a6 6 0 0 1 8.48 0l12.52 12.52a6 6 0 0 1 0 8.48l-12.52 12.52a6 6 0 0 1-8.48 0l-12.52-12.52a6 6 0 0 1 0-8.48z" stroke="#140eb6" stroke-width="3" fill="#fff"/><use xlink:href="#n" transform="matrix(1,0,0,1,596,635) translate(8.827265625 24.02777777777778)"/><path d="M894.76 480.24a6 6 0 0 1 8.48 0l12.52 12.52a6 6 0 0 1 0 8.48l-12.52 12.52a6 6 0 0 1-8.48 0l-12.52-12.52a6 6 0 0 1 0-8.48z" stroke="#140eb6" stroke-width="3" fill="#fff"/><use xlink:href="#o" transform="matrix(1,0,0,1,883,481) translate(9.14193576388889 24.02777777777778)"/><path d="M656.76 858.24a6 6 0 0 1 8.48 0l12.52 12.52a6 6 0 0 1 0 8.48l-12.52 12.52a6 6 0 0 1-8.48 0l-12.52-12.52a6 6 0 0 1 0-8.48z" stroke="#140eb6" stroke-width="3" fill="#fff"/><use xlink:href="#p" transform="matrix(1,0,0,1,645,859) translate(9.250442708333333 24.02777777777778)"/><path d="M810.76 858.24a6 6 0 0 1 8.48 0l12.52 12.52a6 6 0 0 1 0 8.48l-12.52 12.52a6 6 0 0 1-8.48 0l-12.52-12.52a6 6 0 0 1 0-8.48z" stroke="#140eb6" stroke-width="3" fill="#fff"/><use xlink:href="#q" transform="matrix(1,0,0,1,799,859) translate(9.114809027777778 24.02777777777778)"/><path d="M1060.58 802.24a6 6 0 0 1 8.5 0l12.5 12.52a6 6 0 0 1 0 8.48l-12.5 12.52a6 6 0 0 1-8.5 0l-12.5-12.52a6 6 0 0 1 0-8.48z" stroke="#140eb6" stroke-width="3" fill="#fff"/><use xlink:href="#r" transform="matrix(1,0,0,1,1048.8267146167668,803) translate(9.717022569444444 24.02777777777778)"/><path d="M929.76 998.24a6 6 0 0 1 8.48 0l12.52 12.52a6 6 0 0 1 0 8.48l-12.52 12.52a6 6 0 0 1-8.48 0l-12.52-12.52a6 6 0 0 1 0-8.48z" stroke="#140eb6" stroke-width="3" fill="#fff"/><use xlink:href="#s" transform="matrix(1,0,0,1,918,999) translate(9.131085069444444 24.02777777777778)"/><path d="M1118.76 1222.24a6 6 0 0 1 8.48 0l12.52 12.52a6 6 0 0 1 0 8.48l-12.52 12.52a6 6 0 0 1-8.48 0l-12.52-12.52a6 6 0 0 1 0-8.48z" stroke="#140eb6" stroke-width="3" fill="#fff"/><use xlink:href="#t" transform="matrix(1,0,0,1,1107,1223) translate(9.114809027777778 24.02777777777778)"/><path d="M488.76 984.24a6 6 0 0 1 8.48 0l12.52 12.52a6 6 0 0 1 0 8.48l-12.52 12.52a6 6 0 0 1-8.48 0l-12.52-12.52a6 6 0 0 1 0-8.48z" stroke="#140eb6" stroke-width="3" fill="#fff"/><use xlink:href="#u" transform="matrix(1,0,0,1,477,985) translate(4.471137152777779 24.08376736111111)"/><path d="M51 426a6 6 0 0 1 6-6h1208a6 6 0 0 1 6 6v968a6 6 0 0 1-6 6H57a6 6 0 0 1-6-6z" stroke="#000" stroke-width="2" fill-opacity="0"/><path d="M80 960h108.46v36.9H80zM188.46 960h229.02v36.9H188.46z" fill="#f2f3f5"/><path d="M80 996.9h108.46v36.88H80zM188.46 996.9h229.02v36.88H188.46zM80 1033.78h108.46v36.88H80zM188.46 1033.78h229.02v36.88H188.46zM80 1070.66h108.46v36.9H80zM188.46 1070.66h229.02v36.9H188.46z" fill="#fff"/><path d="M80 1107.55h108.46v36.9H80zM188.46 1107.55h229.02v36.9H188.46z" fill="#fff"/><path d="M80 1144.44h108.46v36.9H80zM188.46 1144.44h229.02v36.9H188.46z" fill="#fff"/><path d="M80 1181.33h108.46v36.9H80zM188.46 1181.33h229.02v36.9H188.46z" fill="#fff"/><path d="M80 1218.22h108.46v36.88H80zM188.46 1218.22h229.02v36.88H188.46z" fill="#fff"/><path d="M80 1255.1h108.46v36.9H80zM188.46 1255.1h229.02v36.9H188.46zM80 1292h108.46v36.88H80zM188.46 1292h229.02v36.88H188.46zM80 1328.88h108.46v36.9H80zM188.46 1328.88h229.02v36.9H188.46z" fill="#fff"/><path d="M80 960v36.9M80 960h108.46M188.46 960v36.9M417.48 960v36.9M188.46 960h229.02M80 996.9v36.88M80 996.9h108.46M188.46 996.9v36.88M417.48 996.9v36.88M188.46 996.9h229.02M80 1033.78v36.88M80 1033.78h108.46M188.46 1033.78v36.88M417.48 1033.78v36.88M188.46 1033.78h229.02M80 1070.66v36.9M80 1070.66h108.46M188.46 1070.66v36.9M417.48 1070.66v36.9M188.46 1070.66h229.02M80 1107.55v36.9M80 1107.55h108.46M188.46 1107.55v36.9M417.48 1107.55v36.9M188.46 1107.55h229.02M80 1144.44v36.9M80 1144.44h108.46M188.46 1144.44v36.9M417.48 1144.44v36.9M188.46 1144.44h229.02M80 1181.33v36.9M80 1181.33h108.46M188.46 1181.33v36.9M417.48 1181.33v36.9M188.46 1181.33h229.02M80 1218.22v36.88M80 1218.22h108.46M188.46 1218.22v36.88M417.48 1218.22v36.88M188.46 1218.22h229.02M80 1255.1v36.9M80 1255.1h108.46M188.46 1255.1v36.9M417.48 1255.1v36.9M188.46 1255.1h229.02M80 1292v36.88M80 1292h108.46M188.46 1292v36.88M417.48 1292v36.88M188.46 1292h229.02M80 1328.88v36.9M80 1328.88h108.46M80 1365.77h108.46M188.46 1328.88v36.9M417.48 1328.88v36.9M188.46 1328.88h229.02M188.46 1365.77h229.02" stroke="#000" fill="none"/><use xlink:href="#v" transform="matrix(1,0,0,1,85,965) translate(0.27039930555556424 21.58376736111111)"/><use xlink:href="#w" transform="matrix(1,0,0,1,193.45920138888886,965) translate(67.95355902777777 21.58376736111111)"/><use xlink:href="#x" transform="matrix(1,0,0,1,85,1001.8880208333334) translate(44.980685763888886 21.58376736111111)"/><use xlink:href="#y" transform="matrix(1,0,0,1,193.45920138888886,1001.8880208333334) translate(77.24717881944444 21.58376736111111)"/><use xlink:href="#z" transform="matrix(1,0,0,1,85,1038.7760416666667) translate(42.72374131944444 21.58376736111111)"/><use xlink:href="#A" transform="matrix(1,0,0,1,193.45920138888886,1038.7760416666667) translate(34.76671006944446 21.58376736111111)"/><use xlink:href="#B" transform="matrix(1,0,0,1,193.45920138888886,1038.7760416666667) translate(106.52235243055557 21.58376736111111)"/><use xlink:href="#o" transform="matrix(1,0,0,1,85,1075.6640625) translate(42.636935763888886 21.58376736111111)"/><use xlink:href="#C" transform="matrix(1,0,0,1,193.45920138888886,1075.6640625) translate(69.53233506944444 21.58376736111111)"/><use xlink:href="#n" transform="matrix(1,0,0,1,85,1112.5520833333333) translate(42.322265625 21.58376736111111)"/><use xlink:href="#A" transform="matrix(1,0,0,1,193.45920138888886,1112.5520833333333) translate(56.54947916666667 21.58376736111111)"/><use xlink:href="#D" transform="matrix(1,0,0,1,193.45920138888886,1112.5520833333333) translate(128.30512152777777 21.58376736111111)"/><use xlink:href="#E" transform="matrix(1,0,0,1,85,1149.4401041666667) translate(42.745442708333336 21.58376736111111)"/><use xlink:href="#F" transform="matrix(1,0,0,1,193.45920138888886,1149.4401041666667) translate(25.587022569444457 21.58376736111111)"/><use xlink:href="#G" transform="matrix(1,0,0,1,193.45920138888886,1149.4401041666667) translate(108.84440104166667 21.58376736111111)"/><use xlink:href="#H" transform="matrix(1,0,0,1,85,1186.328125) translate(42.60980902777778 21.58376736111111)"/><use xlink:href="#I" transform="matrix(1,0,0,1,193.45920138888886,1186.328125) translate(41.34765625 21.58376736111111)"/><use xlink:href="#J" transform="matrix(1,0,0,1,193.45920138888886,1186.328125) translate(122.80381944444444 21.58376736111111)"/><use xlink:href="#K" transform="matrix(1,0,0,1,85,1223.2161458333335) translate(43.21202256944444 21.58376736111111)"/><g><use xlink:href="#L" transform="matrix(1,0,0,1,193.45920138888886,1223.2161458333335) translate(79.01041666666667 21.58376736111111)"/></g><g><use xlink:href="#M" transform="matrix(1,0,0,1,85,1260.1041666666667) translate(42.62608506944444 21.58376736111111)"/></g><g><use xlink:href="#N" transform="matrix(1,0,0,1,193.45920138888886,1260.1041666666667) translate(68.59917534722223 21.58376736111111)"/></g><g><use xlink:href="#O" transform="matrix(1,0,0,1,85,1296.9921875) translate(42.60980902777778 21.58376736111111)"/></g><g><use xlink:href="#P" transform="matrix(1,0,0,1,193.45920138888886,1296.9921875) translate(34.462890625 21.58376736111111)"/><use xlink:href="#Q" transform="matrix(1,0,0,1,193.45920138888886,1296.9921875) translate(136.04709201388889 21.58376736111111)"/></g><g><use xlink:href="#R" transform="matrix(1,0,0,1,85,1333.8802083333335) translate(37.97113715277778 21.58376736111111)"/></g><g><use xlink:href="#S" transform="matrix(1,0,0,1,193.45920138888886,1333.8802083333335) translate(24.23611111111113 21.58376736111111)"/><use xlink:href="#T" transform="matrix(1,0,0,1,193.45920138888886,1333.8802083333335) translate(113.28776041666667 21.58376736111111)"/></g><defs><path d="M180 0v-1490h510c348 0 508 209 508 474 0 266-160 477-507 477H370V0H180zm190-706h312c236 0 327-133 327-310 0-176-91-307-329-307H370v617" id="U"/><path d="M798-719v166H144v-166h654" id="V"/><path d="M653-1490V0H466v-1314h-10L96-1047v-204l324-239h233" id="W"/><path d="M646 20c-332 0-524-278-524-764 0-483 194-766 524-766s524 283 524 766c0 485-191 764-524 764zm0-166c218 0 341-220 341-598 0-380-123-601-341-601s-341 222-341 601c0 378 123 598 341 598" id="X"/><g id="a"><use transform="matrix(0.010850694444444444,0,0,0.010850694444444444,0,0)" xlink:href="#U"/><use transform="matrix(0.010850694444444444,0,0,0.010850694444444444,13.183593749999996,0)" xlink:href="#V"/><use transform="matrix(0.010850694444444444,0,0,0.010850694444444444,23.404947916666664,0)" xlink:href="#W"/><use transform="matrix(0.010850694444444444,0,0,0.010850694444444444,32.443576388888886,0)" xlink:href="#W"/><use transform="matrix(0.010850694444444444,0,0,0.010850694444444444,41.48220486111111,0)" xlink:href="#X"/></g><path d="M458 0L52-1490h194c108 439 233 855 324 1313 92-459 221-873 331-1313h216c110 438 234 854 330 1307 92-455 216-869 323-1307h196L1558 0h-221l-256-944c-26-95-50-200-73-331-22 122-44 223-73 331L680 0H458" id="Y"/><path d="M154 0v-137l495-537c165-179 249-281 249-418 0-156-121-253-280-253-170 0-278 110-278 278H158c0-264 200-443 465-443 266 0 455 183 455 416 0 161-73 288-336 568L416-179v12h687V0H154" id="Z"/><g id="c"><use transform="matrix(0.010850694444444444,0,0,0.010850694444444444,0,0)" xlink:href="#Y"/><use transform="matrix(0.010850694444444444,0,0,0.010850694444444444,20.768229166666668,0)" xlink:href="#V"/><use transform="matrix(0.010850694444444444,0,0,0.010850694444444444,30.240885416666664,0)" xlink:href="#Z"/><use transform="matrix(0.010850694444444444,0,0,0.010850694444444444,43.79340277777777,0)" xlink:href="#W"/><use transform="matrix(0.010850694444444444,0,0,0.010850694444444444,52.832031249999986,0)" xlink:href="#X"/></g><path d="M626 20c-262 0-458-168-468-396h184c12 133 134 229 284 229 180 0 311-137 311-326 0-192-136-335-323-335-92 0-196 33-255 78l-178-22 88-738h784v167H429l-51 435h8c61-51 160-87 263-87 273 0 474 211 474 499 0 286-210 496-497 496" id="aa"/><g id="d"><use transform="matrix(0.010850694444444444,0,0,0.010850694444444444,0,0)" xlink:href="#U"/><use transform="matrix(0.010850694444444444,0,0,0.010850694444444444,13.183593749999996,0)" xlink:href="#V"/><use transform="matrix(0.010850694444444444,0,0,0.010850694444444444,23.404947916666664,0)" xlink:href="#aa"/><use transform="matrix(0.010850694444444444,0,0,0.010850694444444444,36.9140625,0)" xlink:href="#W"/><use transform="matrix(0.010850694444444444,0,0,0.010850694444444444,45.95269097222222,0)" xlink:href="#X"/></g><g id="f"><use transform="matrix(0.010850694444444444,0,0,0.010850694444444444,0,0)" xlink:href="#Y"/><use transform="matrix(0.010850694444444444,0,0,0.010850694444444444,20.768229166666668,0)" xlink:href="#V"/><use transform="matrix(0.010850694444444444,0,0,0.010850694444444444,30.989583333333336,0)" xlink:href="#aa"/><use transform="matrix(0.010850694444444444,0,0,0.010850694444444444,44.49869791666667,0)" xlink:href="#W"/><use transform="matrix(0.010850694444444444,0,0,0.010850694444444444,53.5373263888889,0)" xlink:href="#X"/></g><path d="M180 0v-1490h190c0 262 1 526-3 784 217-279 467-523 702-784h249L716-845 1319 0h-225L585-716 370-489V0H180" id="ab"/><path d="M120-303v-155l652-1032h231v1020h202v167h-202V0H821v-303H120zm702-167v-782h-12L323-482v12h499" id="ac"/><g id="h"><use transform="matrix(0.010850694444444444,0,0,0.010850694444444444,0,0)" xlink:href="#ab"/><use transform="matrix(0.010850694444444444,0,0,0.010850694444444444,12.532552083333332,0)" xlink:href="#V"/><use transform="matrix(0.010850694444444444,0,0,0.010850694444444444,22.75390625,0)" xlink:href="#ac"/><use transform="matrix(0.010850694444444444,0,0,0.010850694444444444,36.67534722222222,0)" xlink:href="#W"/><use transform="matrix(0.010850694444444444,0,0,0.010850694444444444,45.71397569444444,0)" xlink:href="#X"/></g><path d="M600 0L52-1490h200c166 485 304 806 458 1336 156-533 285-846 449-1336h202L819 0H600" id="ad"/><g id="i"><use transform="matrix(0.010850694444444444,0,0,0.010850694444444444,0,0)" xlink:href="#ad"/><use transform="matrix(0.010850694444444444,0,0,0.010850694444444444,14.20355902777778,0)" xlink:href="#V"/><use transform="matrix(0.010850694444444444,0,0,0.010850694444444444,24.424913194444443,0)" xlink:href="#ac"/><use transform="matrix(0.010850694444444444,0,0,0.010850694444444444,38.346354166666664,0)" xlink:href="#W"/><use transform="matrix(0.010850694444444444,0,0,0.010850694444444444,47.384982638888886,0)" xlink:href="#W"/></g><path d="M635 20c-292 0-500-160-510-396h192c11 142 145 229 315 229 187 0 323-105 323-260 0-161-125-274-346-274H488v-165h121c174 0 294-100 294-254 0-148-104-245-266-245-152 0-291 85-297 230H157c8-234 222-395 484-395 278 0 448 188 448 400 0 168-95 291-247 336v12c190 31 301 169 301 357 0 244-216 425-508 425" id="ae"/><g id="k"><use transform="matrix(0.010850694444444444,0,0,0.010850694444444444,0,0)" xlink:href="#Y"/><use transform="matrix(0.010850694444444444,0,0,0.010850694444444444,20.768229166666668,0)" xlink:href="#V"/><use transform="matrix(0.010850694444444444,0,0,0.010850694444444444,30.740017361111114,0)" xlink:href="#ae"/><use transform="matrix(0.010850694444444444,0,0,0.010850694444444444,44.46614583333333,0)" xlink:href="#W"/><use transform="matrix(0.010850694444444444,0,0,0.010850694444444444,53.50477430555556,0)" xlink:href="#X"/></g><use transform="matrix(0.010850694444444444,0,0,0.010850694444444444,0,0)" xlink:href="#W" id="l"/><use transform="matrix(0.010850694444444444,0,0,0.010850694444444444,0,0)" xlink:href="#Z" id="m"/><use transform="matrix(0.010850694444444444,0,0,0.010850694444444444,0,0)" xlink:href="#ac" id="n"/><use transform="matrix(0.010850694444444444,0,0,0.010850694444444444,0,0)" xlink:href="#ae" id="o"/><use transform="matrix(0.010850694444444444,0,0,0.010850694444444444,0,0)" xlink:href="#aa" id="p"/><path d="M646 20c-249 0-524-159-524-708 0-524 209-822 547-822 250 0 431 161 467 395H950c-33-129-126-227-281-227-229 0-367 208-367 566h12c80-124 212-198 367-198 255 0 467 205 467 493 0 278-198 501-502 501zm0-167c179 0 318-148 318-334 0-182-133-328-313-328-181 0-322 156-322 330 0 176 134 332 317 332" id="af"/><use transform="matrix(0.010850694444444444,0,0,0.010850694444444444,0,0)" xlink:href="#af" id="q"/><path d="M200 0l662-1311v-12H98v-167h963v177L400 0H200" id="ag"/><use transform="matrix(0.010850694444444444,0,0,0.010850694444444444,0,0)" xlink:href="#ag" id="r"/><path d="M633 20c-303 0-511-173-511-416 0-188 124-348 291-378v-8c-145-37-237-174-237-332 0-227 192-396 457-396 261 0 456 169 456 396 0 158-94 295-235 332v8c162 30 291 190 291 378 0 243-212 416-512 416zm0-165c197 0 322-103 322-261 0-165-138-283-322-283-188 0-324 118-324 283 0 158 123 261 324 261zm0-703c157 0 272-101 272-252 0-149-110-246-272-246-165 0-273 97-273 246 0 151 112 252 273 252" id="ah"/><use transform="matrix(0.010850694444444444,0,0,0.010850694444444444,0,0)" xlink:href="#ah" id="s"/><path d="M603 20c-253 0-434-161-469-399h188c31 132 124 231 281 231 227 0 367-207 367-568h-12c-80 122-211 199-367 199-257 0-469-206-469-493 0-278 200-505 506-500 245 4 520 158 520 706 0 527-208 824-545 824zm16-703c181 0 324-157 324-332 0-171-135-328-318-328-180 0-317 148-317 332 0 183 131 328 311 328" id="ai"/><use transform="matrix(0.010850694444444444,0,0,0.010850694444444444,0,0)" xlink:href="#ai" id="t"/><g id="u"><use transform="matrix(0.010850694444444444,0,0,0.010850694444444444,0,0)" xlink:href="#W"/><use transform="matrix(0.010850694444444444,0,0,0.010850694444444444,9.038628472222221,0)" xlink:href="#X"/></g><path d="M783 20c-382 0-661-292-661-764 0-473 279-766 661-766 302 0 548 182 601 489h-190c-42-204-217-313-411-313-268 0-476 208-476 590 0 381 209 588 476 588 195 0 369-110 411-313h190c-52 303-296 489-601 489" id="aj"/><path d="M613 24c-304 0-509-231-509-576 0-350 205-580 509-580 305 0 511 230 511 580 0 345-206 576-511 576zm0-161c226 0 329-195 329-415 0-222-103-419-329-419-223 0-326 196-326 419 0 220 103 415 326 415" id="ak"/><path d="M158 0v-1118h174v172h12c41-113 157-188 290-188 26 0 70 2 91 3v181c-11-2-60-10-108-10-161 0-279 109-279 260V0H158" id="al"/><path d="M158 0v-1118h180V0H158zm91-1301c-68 0-125-53-125-119s57-119 125-119c69 0 126 53 126 119s-57 119-126 119" id="am"/><path d="M628 24c-324 0-524-230-524-574 0-343 198-582 503-582 237 0 487 146 487 559v75H286c9 234 145 362 343 362 132 0 231-58 273-172l174 48C1024-91 857 24 628 24zM287-650h624c-17-190-120-322-304-322-192 0-309 151-320 322" id="an"/><path d="M338-670V0H158v-1118h173l1 207c72-158 192-221 342-221 226 0 378 139 378 422V0H872v-695c0-172-96-275-252-275-161 0-282 109-282 300" id="ao"/><path d="M598-1118v154H368v674c0 100 37 144 132 144 23 0 62-6 92-12L629-6c-37 13-88 20-134 20-193 0-307-107-307-290v-688H20v-154h168v-266h180v266h230" id="ap"/><g id="v"><use transform="matrix(0.010850694444444444,0,0,0.010850694444444444,0,0)" xlink:href="#aj"/><use transform="matrix(0.010850694444444444,0,0,0.010850694444444444,16.23263888888889,0)" xlink:href="#ak"/><use transform="matrix(0.010850694444444444,0,0,0.010850694444444444,29.557291666666664,0)" xlink:href="#al"/><use transform="matrix(0.010850694444444444,0,0,0.010850694444444444,38.27039930555555,0)" xlink:href="#al"/><use transform="matrix(0.010850694444444444,0,0,0.010850694444444444,46.983506944444436,0)" xlink:href="#am"/><use transform="matrix(0.010850694444444444,0,0,0.010850694444444444,52.36545138888888,0)" xlink:href="#an"/><use transform="matrix(0.010850694444444444,0,0,0.010850694444444444,65.32118055555554,0)" xlink:href="#ao"/><use transform="matrix(0.010850694444444444,0,0,0.010850694444444444,78.45052083333331,0)" xlink:href="#ap"/><use transform="matrix(0.010850694444444444,0,0,0.010850694444444444,85.5034722222222,0)" xlink:href="#an"/></g><path d="M180 0v-1490h224l606 953c40 63 108 177 176 312-27-437-7-821-13-1265h190V0h-226C860-448 622-778 356-1262c27 476 11 792 15 1262H180" id="aq"/><path d="M158 0v-1118h175l1 205c55-151 181-225 313-225 147 0 245 90 285 228 53-141 190-228 352-228 194 0 352 125 352 384V0h-181v-749c0-161-105-225-225-225-151 0-243 103-243 244V0H807v-767c0-124-93-207-219-207-131 0-250 92-250 270V0H158" id="ar"/><path d="M677 24c-213 0-288-135-325-197h-20V0H158v-1490h180v551h14c37-59 106-193 324-193 279 0 474 222 474 576 0 356-194 580-473 580zm-27-161c209 0 317-186 317-421 0-232-105-413-317-413-206 0-314 166-314 413 0 249 111 421 314 421" id="as"/><g id="w"><use transform="matrix(0.010850694444444444,0,0,0.010850694444444444,0,0)" xlink:href="#aq"/><use transform="matrix(0.010850694444444444,0,0,0.010850694444444444,16.74262152777778,0)" xlink:href="#ak"/><use transform="matrix(0.010850694444444444,0,0,0.010850694444444444,30.06727430555556,0)" xlink:href="#ar"/><use transform="matrix(0.010850694444444444,0,0,0.010850694444444444,49.533420138888886,0)" xlink:href="#as"/><use transform="matrix(0.010850694444444444,0,0,0.010850694444444444,63.14019097222221,0)" xlink:href="#al"/><use transform="matrix(0.010850694444444444,0,0,0.010850694444444444,71.13715277777777,0)" xlink:href="#an"/></g><use transform="matrix(0.010850694444444444,0,0,0.010850694444444444,0,0)" xlink:href="#W" id="x"/><path d="M180 0v-1490h270l367 940c28 72 75 218 110 339 35-117 81-264 110-339l362-940h271V0h-187c2-448-5-837 7-1287-157 497-311 829-483 1287H842C666-458 514-784 354-1284c12 438 5 843 7 1284H180" id="at"/><path d="M538 24C308 24 148-78 108-271l171-41c32 123 123 178 257 178 156 0 256-77 256-169 0-77-54-128-164-154l-186-44c-203-48-300-148-300-305 0-192 176-326 414-326 230 0 351 112 402 269l-163 42c-31-80-94-158-238-158-133 0-233 69-233 162 0 83 57 129 188 160l169 40c203 48 298 149 298 302 0 196-179 339-441 339" id="au"/><g id="y"><use transform="matrix(0.010850694444444444,0,0,0.010850694444444444,0,0)" xlink:href="#at"/><use transform="matrix(0.010850694444444444,0,0,0.010850694444444444,20.07378472222222,0)" xlink:href="#ak"/><use transform="matrix(0.010850694444444444,0,0,0.010850694444444444,33.3984375,0)" xlink:href="#au"/><use transform="matrix(0.010850694444444444,0,0,0.010850694444444444,45.12803819444444,0)" xlink:href="#ap"/><use transform="matrix(0.010850694444444444,0,0,0.010850694444444444,52.18098958333333,0)" xlink:href="#ak"/></g><use transform="matrix(0.010850694444444444,0,0,0.010850694444444444,0,0)" xlink:href="#Z" id="z"/><g id="A"><use transform="matrix(0.010850694444444444,0,0,0.010850694444444444,0,0)" xlink:href="#at"/><use transform="matrix(0.010850694444444444,0,0,0.010850694444444444,20.07378472222222,0)" xlink:href="#ak"/><use transform="matrix(0.010850694444444444,0,0,0.010850694444444444,33.3984375,0)" xlink:href="#au"/><use transform="matrix(0.010850694444444444,0,0,0.010850694444444444,45.12803819444444,0)" xlink:href="#ap"/><use transform="matrix(0.010850694444444444,0,0,0.010850694444444444,52.18098958333333,0)" xlink:href="#ak"/></g><path d="M613 24c-304 0-509-231-509-576 0-350 205-580 509-580 305 0 511 230 511 580 0 345-206 576-511 576zm0-161c226 0 329-195 329-415 0-222-103-419-329-419-223 0-326 196-326 419 0 220 103 415 326 415zm-79-1127l140-294h201l-194 294H534" id="av"/><g id="B"><use transform="matrix(0.010850694444444444,0,0,0.010850694444444444,0,0)" xlink:href="#U"/><use transform="matrix(0.010850694444444444,0,0,0.010850694444444444,14.192708333333332,0)" xlink:href="#al"/><use transform="matrix(0.010850694444444444,0,0,0.010850694444444444,22.189670138888886,0)" xlink:href="#an"/><use transform="matrix(0.010850694444444444,0,0,0.010850694444444444,35.14539930555555,0)" xlink:href="#au"/><use transform="matrix(0.010850694444444444,0,0,0.010850694444444444,46.874999999999986,0)" xlink:href="#am"/><use transform="matrix(0.010850694444444444,0,0,0.010850694444444444,52.256944444444436,0)" xlink:href="#av"/><use transform="matrix(0.010850694444444444,0,0,0.010850694444444444,65.58159722222221,0)" xlink:href="#ao"/></g><path d="M645 0H180v-1490h484c435 0 692 280 692 742 0 466-257 748-711 748zM370-168h263c363 0 539-218 539-580 0-358-176-574-521-574H370v1154" id="aw"/><path d="M471 26C259 26 90-98 90-318c0-256 228-303 435-329 202-27 287-16 287-108 0-139-79-219-234-219-161 0-248 86-283 164l-173-57c86-203 278-265 451-265 150 0 419 46 419 395V0H815v-152h-12C765-73 660 26 471 26zm31-159c199 0 310-134 310-271v-155c-30 35-226 55-295 64-131 17-246 59-246 186 0 116 97 176 231 176" id="ax"/><path d="M157-1118h181V80c1 225-123 350-364 338V252c126 9 184-48 183-172v-1198zm91-183c-68 0-125-53-125-119s57-119 125-119c69 0 126 53 126 119s-57 119-126 119" id="ay"/><g id="C"><use transform="matrix(0.010850694444444444,0,0,0.010850694444444444,0,0)" xlink:href="#aw"/><use transform="matrix(0.010850694444444444,0,0,0.010850694444444444,16.03732638888889,0)" xlink:href="#al"/><use transform="matrix(0.010850694444444444,0,0,0.010850694444444444,24.034288194444443,0)" xlink:href="#an"/><use transform="matrix(0.010850694444444444,0,0,0.010850694444444444,36.99001736111111,0)" xlink:href="#ao"/><use transform="matrix(0.010850694444444444,0,0,0.010850694444444444,50.119357638888886,0)" xlink:href="#ax"/><use transform="matrix(0.010850694444444444,0,0,0.010850694444444444,62.59765625,0)" xlink:href="#ay"/><use transform="matrix(0.010850694444444444,0,0,0.010850694444444444,67.97960069444444,0)" xlink:href="#an"/></g><g id="D"><use transform="matrix(0.010850694444444444,0,0,0.010850694444444444,0,0)" xlink:href="#U"/><use transform="matrix(0.010850694444444444,0,0,0.010850694444444444,14.192708333333332,0)" xlink:href="#al"/><use transform="matrix(0.010850694444444444,0,0,0.010850694444444444,22.189670138888886,0)" xlink:href="#an"/></g><use transform="matrix(0.010850694444444444,0,0,0.010850694444444444,0,0)" xlink:href="#aa" id="E"/><path d="M180 0v-1490h190v1322h690V0H180" id="az"/><path d="M158 0v-1118h180V0H158zm12-1264l140-294h201l-194 294H170" id="aA"/><path d="M1096 418H916v-591h-14C865-111 790 24 577 24c-279 0-473-224-473-580 0-354 195-576 474-576 218 0 287 134 324 193h20v-179h174V418zM604-137c203 0 314-172 314-421 0-247-108-413-314-413-212 0-317 181-317 413 0 235 108 421 317 421" id="aB"/><path d="M537 14c-226 0-379-139-379-422v-710h180v695c0 172 97 275 253 275 160 0 281-109 281-300v-670h181V0H879v-209C806-46 684 14 537 14" id="aC"/><path d="M577 24c-279 0-473-224-473-580 0-354 195-576 474-576 218 0 287 134 324 193h14v-551h180V0H922v-173h-20C865-111 790 24 577 24zm27-161c203 0 314-172 314-421 0-247-108-413-314-413-212 0-317 181-317 413 0 235 108 421 317 421" id="aD"/><g id="F"><use transform="matrix(0.010850694444444444,0,0,0.010850694444444444,0,0)" xlink:href="#az"/><use transform="matrix(0.010850694444444444,0,0,0.010850694444444444,12.565104166666666,0)" xlink:href="#aA"/><use transform="matrix(0.010850694444444444,0,0,0.010850694444444444,17.94704861111111,0)" xlink:href="#aB"/><use transform="matrix(0.010850694444444444,0,0,0.010850694444444444,31.553819444444443,0)" xlink:href="#aC"/><use transform="matrix(0.010850694444444444,0,0,0.010850694444444444,44.694010416666664,0)" xlink:href="#am"/><use transform="matrix(0.010850694444444444,0,0,0.010850694444444444,50.07595486111111,0)" xlink:href="#aD"/><use transform="matrix(0.010850694444444444,0,0,0.010850694444444444,63.68272569444444,0)" xlink:href="#ak"/></g><path d="M338-1490V0H158v-1490h180" id="aE"/><g id="G"><use transform="matrix(0.010850694444444444,0,0,0.010850694444444444,0,0)" xlink:href="#aj"/><use transform="matrix(0.010850694444444444,0,0,0.010850694444444444,16.23263888888889,0)" xlink:href="#ax"/><use transform="matrix(0.010850694444444444,0,0,0.010850694444444444,28.7109375,0)" xlink:href="#aE"/><use transform="matrix(0.010850694444444444,0,0,0.010850694444444444,34.09288194444444,0)" xlink:href="#am"/><use transform="matrix(0.010850694444444444,0,0,0.010850694444444444,39.474826388888886,0)" xlink:href="#an"/><use transform="matrix(0.010850694444444444,0,0,0.010850694444444444,52.43055555555556,0)" xlink:href="#ao"/><use transform="matrix(0.010850694444444444,0,0,0.010850694444444444,65.55989583333333,0)" xlink:href="#ap"/><use transform="matrix(0.010850694444444444,0,0,0.010850694444444444,72.61284722222221,0)" xlink:href="#an"/></g><use transform="matrix(0.010850694444444444,0,0,0.010850694444444444,0,0)" xlink:href="#af" id="H"/><path d="M126 0v-134l627-806v-11H146v-167h839v143L376-178v11h629V0H126" id="aF"/><path d="M613 24c-304 0-509-231-509-576 0-350 205-580 509-580 216 0 392 114 453 309l-173 49c-33-115-133-197-280-197-223 0-326 196-326 419 0 220 103 415 326 415 150 0 252-85 285-206l172 49C1010-95 832 24 613 24" id="aG"/><g id="I"><use transform="matrix(0.010850694444444444,0,0,0.010850694444444444,0,0)" xlink:href="#at"/><use transform="matrix(0.010850694444444444,0,0,0.010850694444444444,20.07378472222222,0)" xlink:href="#an"/><use transform="matrix(0.010850694444444444,0,0,0.010850694444444444,32.70399305555556,0)" xlink:href="#aF"/><use transform="matrix(0.010850694444444444,0,0,0.010850694444444444,44.650607638888886,0)" xlink:href="#aG"/><use transform="matrix(0.010850694444444444,0,0,0.010850694444444444,57.345920138888886,0)" xlink:href="#aE"/><use transform="matrix(0.010850694444444444,0,0,0.010850694444444444,62.72786458333333,0)" xlink:href="#ax"/></g><path d="M180 0v-1490h901v168H370v510h643v168H370V0H180" id="aH"/><path d="M338-670V0H158v-1490h180v566c73-149 190-208 336-208 226 0 379 139 379 422V0H872v-695c0-172-96-275-252-275-161 0-282 109-282 300" id="aI"/><g id="J"><use transform="matrix(0.010850694444444444,0,0,0.010850694444444444,0,0)" xlink:href="#aH"/><use transform="matrix(0.010850694444444444,0,0,0.010850694444444444,13.118489583333332,0)" xlink:href="#aE"/><use transform="matrix(0.010850694444444444,0,0,0.010850694444444444,18.50043402777778,0)" xlink:href="#ax"/><use transform="matrix(0.010850694444444444,0,0,0.010850694444444444,30.97873263888889,0)" xlink:href="#au"/><use transform="matrix(0.010850694444444444,0,0,0.010850694444444444,42.708333333333336,0)" xlink:href="#aI"/></g><use transform="matrix(0.010850694444444444,0,0,0.010850694444444444,0,0)" xlink:href="#ag" id="K"/><path d="M158 418v-1536h174v179h20c37-59 106-193 324-193 279 0 474 222 474 576 0 356-194 580-473 580-213 0-288-135-325-197h-14v591H158zm492-555c209 0 317-186 317-421 0-232-105-413-317-413-206 0-314 166-314 413 0 249 111 421 314 421" id="aJ"/><g id="L"><use transform="matrix(0.010850694444444444,0,0,0.010850694444444444,0,0)" xlink:href="#ad"/><use transform="matrix(0.010850694444444444,0,0,0.010850694444444444,14.20355902777778,0)" xlink:href="#ax"/><use transform="matrix(0.010850694444444444,0,0,0.010850694444444444,26.68185763888889,0)" xlink:href="#aJ"/><use transform="matrix(0.010850694444444444,0,0,0.010850694444444444,40.28862847222222,0)" xlink:href="#ak"/><use transform="matrix(0.010850694444444444,0,0,0.010850694444444444,53.61328125,0)" xlink:href="#al"/></g><use transform="matrix(0.010850694444444444,0,0,0.010850694444444444,0,0)" xlink:href="#ah" id="M"/><g id="N"><use transform="matrix(0.010850694444444444,0,0,0.010850694444444444,0,0)" xlink:href="#ad"/><use transform="matrix(0.010850694444444444,0,0,0.010850694444444444,15.33203125,0)" xlink:href="#am"/><use transform="matrix(0.010850694444444444,0,0,0.010850694444444444,20.713975694444443,0)" xlink:href="#ao"/><use transform="matrix(0.010850694444444444,0,0,0.010850694444444444,33.84331597222222,0)" xlink:href="#ax"/><use transform="matrix(0.010850694444444444,0,0,0.010850694444444444,46.32161458333333,0)" xlink:href="#aF"/><use transform="matrix(0.010850694444444444,0,0,0.010850694444444444,58.593749999999986,0)" xlink:href="#ax"/><use transform="matrix(0.010850694444444444,0,0,0.010850694444444444,71.0720486111111,0)" xlink:href="#au"/></g><use transform="matrix(0.010850694444444444,0,0,0.010850694444444444,0,0)" xlink:href="#ai" id="O"/><g id="P"><use transform="matrix(0.010850694444444444,0,0,0.010850694444444444,0,0)" xlink:href="#U"/><use transform="matrix(0.010850694444444444,0,0,0.010850694444444444,14.192708333333332,0)" xlink:href="#al"/><use transform="matrix(0.010850694444444444,0,0,0.010850694444444444,22.189670138888886,0)" xlink:href="#ak"/><use transform="matrix(0.010850694444444444,0,0,0.010850694444444444,35.514322916666664,0)" xlink:href="#aD"/><use transform="matrix(0.010850694444444444,0,0,0.010850694444444444,49.12109375,0)" xlink:href="#aC"/><use transform="matrix(0.010850694444444444,0,0,0.010850694444444444,62.26128472222222,0)" xlink:href="#aG"/><use transform="matrix(0.010850694444444444,0,0,0.010850694444444444,74.95659722222223,0)" xlink:href="#ap"/><use transform="matrix(0.010850694444444444,0,0,0.010850694444444444,82.00954861111111,0)" xlink:href="#ak"/></g><g id="Q"><use transform="matrix(0.010850694444444444,0,0,0.010850694444444444,0,0)" xlink:href="#aH"/><use transform="matrix(0.010850694444444444,0,0,0.010850694444444444,13.118489583333332,0)" xlink:href="#am"/><use transform="matrix(0.010850694444444444,0,0,0.010850694444444444,18.50043402777778,0)" xlink:href="#ao"/><use transform="matrix(0.010850694444444444,0,0,0.010850694444444444,31.62977430555556,0)" xlink:href="#ax"/><use transform="matrix(0.010850694444444444,0,0,0.010850694444444444,44.10807291666667,0)" xlink:href="#aE"/></g><g id="R"><use transform="matrix(0.010850694444444444,0,0,0.010850694444444444,0,0)" xlink:href="#W"/><use transform="matrix(0.010850694444444444,0,0,0.010850694444444444,9.038628472222221,0)" xlink:href="#X"/></g><g id="S"><use transform="matrix(0.010850694444444444,0,0,0.010850694444444444,0,0)" xlink:href="#ad"/><use transform="matrix(0.010850694444444444,0,0,0.010850694444444444,15.33203125,0)" xlink:href="#am"/><use transform="matrix(0.010850694444444444,0,0,0.010850694444444444,20.713975694444443,0)" xlink:href="#ao"/><use transform="matrix(0.010850694444444444,0,0,0.010850694444444444,33.84331597222222,0)" xlink:href="#ax"/><use transform="matrix(0.010850694444444444,0,0,0.010850694444444444,46.32161458333333,0)" xlink:href="#aF"/><use transform="matrix(0.010850694444444444,0,0,0.010850694444444444,58.593749999999986,0)" xlink:href="#ax"/><use transform="matrix(0.010850694444444444,0,0,0.010850694444444444,71.0720486111111,0)" xlink:href="#au"/></g><path d="M180 0v-1490h510c348 0 508 194 508 460 0 198-88 351-276 417L1256 0h-220L726-579c-117 2-238 0-356 1V0H180zm190-747h312c235 0 327-108 327-283 0-177-92-293-329-293H370v576" id="aK"/><g id="T"><use transform="matrix(0.010850694444444444,0,0,0.010850694444444444,0,0)" xlink:href="#aK"/><use transform="matrix(0.010850694444444444,0,0,0.010850694444444444,13.975694444444445,0)" xlink:href="#an"/><use transform="matrix(0.010850694444444444,0,0,0.010850694444444444,26.931423611111104,0)" xlink:href="#ap"/><use transform="matrix(0.010850694444444444,0,0,0.010850694444444444,33.98437499999999,0)" xlink:href="#ak"/><use transform="matrix(0.010850694444444444,0,0,0.010850694444444444,47.30902777777778,0)" xlink:href="#al"/><use transform="matrix(0.010850694444444444,0,0,0.010850694444444444,56.02213541666666,0)" xlink:href="#ao"/><use transform="matrix(0.010850694444444444,0,0,0.010850694444444444,69.15147569444443,0)" xlink:href="#ak"/></g></defs></g></svg>