<svg xmlns="http://www.w3.org/2000/svg" xmlns:xlink="http://www.w3.org/1999/xlink" xmlns:lucid="lucid" width="1124" height="799.5"><g transform="translate(-78 -460.5)" lucid:page-tab-id="0_0"><path d="M268.38 495.18l-2.85 4.4a2.83 2.83 0 0 0 2.4 4.38l22.6-.17a3.13 3.13 0 0 0 2.53-4.95l-3.6-5.1a.3.3 0 0 0-.33-.1l-.2.06" stroke="#000" stroke-width="3" fill="#ffd9d9"/><path d="M263.26 472.25s.97-1.72 1.4-2.4c.45-.67.5-1.05 1.67-2.35 1.2-1.26 2.3-2.27 3.86-3.1 1.6-.9 2.47-1.73 5.03-2.02 2.56-.34 3.32-.38 3.32-.38l19.45.06a6 6 0 0 1 5.98 6.02v5.2a4.72 4.72 0 0 1-4.75 4.7l-4.72-.02s.18 1.47.18 2.35c0 .94.08 1.86-.2 3.25-.27 1.38-.52 2.6-1.27 4.28-.75 1.68-1.46 2.94-2 3.65-.56.76-.93 1.26-2.07 2.36-1.13 1.13-1.8 1.68-3.1 2.4-1.3.75-2.06 1.2-3 1.46-.95.3-1.25.5-2.76.67-1.5.13-2.48.2-3.5.13-1-.13-2.13-.25-3-.6-.93-.33-2.45-1-3.3-1.5-.87-.5-.95-.34-2.13-1.35-1.17-1-1.47-.92-2.48-2.35-1.05-1.38-2-2.7-2.6-4.28-.6-1.6-1.26-3.9-1.26-3.9" stroke="#000" stroke-width="3" fill="#ffd9d9"/><path d="M272.67 475.86s.42-.67.8-1.05c.42-.37.88-.75 1.42-1.08.54-.34 1-.6 1.67-.76.72-.2 1.9-.25 1.9-.25s1.3.1 2 .47c.77.34 1.73.84 2.36 1.6.63.8.84 1.1 1.14 1.68.33.63.54.96.75 1.76.17.8.3 1.52.3 1.94 0 .47.04.76-.05 1.4-.12.66-.04.8-.3 1.46-.2.67-.16.76-.58 1.47-.4.7-.43.88-.85 1.4-.46.53-.6.74-1.1 1.12-.54.37-.66.54-1.42.83-.75.34-.88.42-1.47.5-.54.1-.8.1-1.3.1-.55-.05-.67 0-1.26-.18-.55-.17-1.22-.42-1.22-.42s-.42-.2-.84-.5-.46-.26-.96-.8c-.5-.6-.72-.63-1.14-1.43l-.38-.8" stroke="#000" stroke-width="3" fill="#ffd9d9"/><use xlink:href="#a" transform="matrix(1,0,0,1,232,509) translate(23.249348958333336 28.08376736111111)"/><path d="M528 581c0 19.32-15.68 35-35 35s-35-15.68-35-35 15.68-35 35-35 35 15.68 35 35z" stroke="#000" stroke-width="3" fill="#ffdda6"/><path d="M458 582.82h7.35l11.06-18.4 25.84 36.8 18.4-18.4H528" stroke="#000" stroke-width="3" fill="none"/><use xlink:href="#b" transform="matrix(1,0,0,1,428,621) translate(65 21.52777777777778)"/><use xlink:href="#c" transform="matrix(1,0,0,1,428,621) translate(31.574435763888893 53.79340277777778)"/><path d="M1122.38 1153.18l-2.85 4.4a2.83 2.83 0 0 0 2.4 4.38l22.6-.17a3.13 3.13 0 0 0 2.53-4.95l-3.6-5.1a.3.3 0 0 0-.33-.1l-.2.06" stroke="#000" stroke-width="3" fill="#ffd9d9"/><path d="M1117.26 1130.25s.97-1.72 1.4-2.4c.45-.67.5-1.05 1.67-2.35 1.2-1.26 2.3-2.27 3.86-3.1 1.6-.9 2.47-1.73 5.03-2.02 2.56-.34 3.32-.38 3.32-.38l19.45.06a6 6 0 0 1 5.98 6.02v5.2a4.72 4.72 0 0 1-4.75 4.7l-4.72-.02s.18 1.47.18 2.35c0 .94.08 1.86-.2 3.25-.27 1.38-.52 2.6-1.27 4.28-.75 1.68-1.46 2.94-2 3.65-.56.76-.93 1.26-2.07 2.36-1.13 1.13-1.8 1.68-3.1 2.4-1.3.75-2.06 1.2-3 1.46-.95.3-1.25.5-2.76.67-1.5.13-2.48.2-3.5.13-1-.13-2.13-.25-3-.6-.93-.33-2.45-1-3.3-1.5-.87-.5-.95-.34-2.13-1.35-1.17-1-1.47-.92-2.48-2.35-1.05-1.38-2-2.7-2.6-4.28-.6-1.6-1.26-3.9-1.26-3.9" stroke="#000" stroke-width="3" fill="#ffd9d9"/><path d="M1126.67 1133.86s.42-.67.8-1.05c.42-.37.88-.75 1.42-1.08.54-.34 1-.6 1.67-.76.72-.2 1.9-.25 1.9-.25s1.3.1 2 .47c.77.34 1.73.84 2.36 1.6.63.8.84 1.1 1.14 1.68.33.63.54.96.75 1.76.17.8.3 1.52.3 1.94 0 .47.04.76-.05 1.4-.12.66-.04.8-.3 1.46-.2.67-.16.76-.58 1.47-.4.7-.43.88-.85 1.4-.46.53-.6.74-1.1 1.12-.54.37-.66.54-1.42.83-.75.34-.88.42-1.47.5-.54.1-.8.1-1.3.1-.55-.05-.67 0-1.26-.18-.55-.17-1.22-.42-1.22-.42s-.42-.2-.84-.5-.46-.26-.96-.8c-.5-.6-.72-.63-1.14-1.43l-.38-.8" stroke="#000" stroke-width="3" fill="#ffd9d9"/><use xlink:href="#d" transform="matrix(1,0,0,1,1086,1167) translate(21.01410590277778 28.08376736111111)"/><path d="M531.5 581H606a6 6 0 0 1 6 6v41.98" stroke="#140eb6" stroke-width="4" fill="none"/><path d="M531.55 582.98h-2.2l.15-1.98-.14-1.98h2.2zM613.98 631.26l-.8-.2L612 631l-1.17.1-.8.18v-2.33h3.95z" stroke="#140eb6" stroke-width=".05" fill="#140eb6"/><path d="M612 673.02v30.74" stroke="#140eb6" stroke-width="4" fill="none"/><path d="M610.83 670.93l1.17.1 1.17-.1.8-.2v2.34h-3.95v-2.34z" stroke="#140eb6" stroke-width=".05" fill="#140eb6"/><path d="M612 720.02l-4.63-14.26h9.26z" stroke="#140eb6" stroke-width="4" fill="#140eb6"/><path d="M612 787.5V869a6 6 0 0 0 6 6h20.98" stroke="#140eb6" stroke-width="4" fill="none"/><path d="M612 785.5l1.98-.14v2.2H610v-2.23zM641.07 873.83l-.1 1.17.1 1.17.2.8h-2.34v-3.95h2.34z" stroke="#140eb6" stroke-width=".05" fill="#140eb6"/><path d="M683.02 875h20.54" stroke="#140eb6" stroke-width="4" fill="none"/><path d="M683.07 876.98h-2.34l.2-.8.1-1.18-.1-1.17-.2-.8h2.34z" stroke="#140eb6" stroke-width=".05" fill="#140eb6"/><path d="M719.83 875l-14.27 4.63v-9.26z" stroke="#140eb6" stroke-width="4" fill="#140eb6"/><path d="M751.7 875h41.28M751.75 875h-5.05" stroke="#140eb6" stroke-width="4" fill="none"/><path d="M795.07 873.83l-.1 1.17.1 1.17.2.8h-2.34v-3.95h2.34z" stroke="#140eb6" stroke-width=".05" fill="#140eb6"/><path d="M837.02 875h25.63a.1.1 0 0 1 .1.1.1.1 0 0 0 .12.13h4.9" stroke="#140eb6" stroke-width="4" fill="none"/><path d="M837.07 876.98h-2.34l.2-.8.1-1.18-.1-1.17-.2-.8h2.34z" stroke="#140eb6" stroke-width=".05" fill="#140eb6"/><path d="M884.03 875.23l-14.27 4.63v-9.27z" stroke="#140eb6" stroke-width="4" fill="#140eb6"/><path d="M1064.83 841.02v53.5a.02.02 0 0 1-.02.03.02.02 0 0 0-.02.03v32.77" stroke="#140eb6" stroke-width="4" fill="none"/><path d="M1063.65 838.93l1.18.1 1.17-.1.8-.2v2.34h-3.95v-2.34z" stroke="#140eb6" stroke-width=".05" fill="#140eb6"/><path d="M1064.78 943.62l-4.63-14.27h9.27z" stroke="#140eb6" stroke-width="4" fill="#140eb6"/><path d="M934 765.98v-32a6 6 0 0 1 6-6h118.83a6 6 0 0 1 6 6v63" stroke="#140eb6" stroke-width="4" fill="none"/><path d="M935.98 768l-2-.03-1.96.12v-2.18H936zM1066.8 799.26l-.8-.2-1.17-.08-1.18.1-.8.18v-2.33h3.95z" stroke="#140eb6" stroke-width=".05" fill="#140eb6"/><path d="M381 547.02v29.87a6 6 0 0 0 6 6h50.64" stroke="#140eb6" stroke-width="4" fill="none"/><path d="M379.83 544.93l1.17.1 1.17-.1.8-.2v2.34h-3.95v-2.34z" stroke="#140eb6" stroke-width=".05" fill="#140eb6"/><path d="M452.63 582.9l-13 7.5v-15z" stroke="#140eb6" stroke-width="4" fill="#140eb6"/><path d="M307.48 469.5H375a6 6 0 0 1 6 6V503" stroke="#140eb6" stroke-width="4" fill="none"/><path d="M307.53 471.5h-2.05v-3.47l-.03-.5h2.08zM382.98 505.26l-.8-.2L381 505l-1.17.1-.8.2v-2.35h3.95z" stroke="#140eb6" stroke-width=".05" fill="#140eb6"/><path d="M239.42 483h-32.4" stroke="#140eb6" stroke-width="4" fill="none"/><path d="M255.68 483l-14.26 4.63v-9.26z" stroke="#140eb6" stroke-width="4" fill="#140eb6"/><path d="M207.07 484.98h-2.33l.2-.8.08-1.18-.1-1.17-.18-.8h2.33z" stroke="#140eb6" stroke-width=".05" fill="#140eb6"/><path d="M162.98 483H82" stroke="#140eb6" stroke-width="4" fill="none"/><path d="M165.07 481.83l-.1 1.17.1 1.17.2.8h-2.34v-3.95h2.33z" stroke="#140eb6" stroke-width=".05" fill="#140eb6"/><path d="M82.05 483H80M934 940.98v52" stroke="#140eb6" stroke-width="4" fill="none"/><path d="M935.98 941.03H932v-2.08l2 .03 1.96-.12zM935.98 995.26l-.8-.2L934 995l-1.17.1-.8.18v-2.33h3.95z" stroke="#140eb6" stroke-width=".05" fill="#140eb6"/><path d="M934 1037.02v92.9a6 6 0 0 0 6 6h153.94" stroke="#140eb6" stroke-width="4" fill="none"/><path d="M932.83 1034.93l1.17.1 1.17-.1.8-.2v2.34h-3.95v-2.34z" stroke="#140eb6" stroke-width=".05" fill="#140eb6"/><path d="M1110.2 1135.92l-14.26 4.63v-9.27z" stroke="#140eb6" stroke-width="4" fill="#140eb6"/><path d="M586.42 766.3H572.1m-14.33 0H529.1m-14.3 0h-28.67m-14.32 0h-28.65m-14.32 0h-28.66m-14.32 0H357.2m-14.33 0H314.2m-14.3 0h-28.67m-14.32 0h-28.65m-14.32 0h-28.66m-14.32 0h-14.33M586.38 766.3h4.54" stroke="#008a0e" stroke-width="3" fill="none"/><path d="M140.85 766.3l14.27-4.63v9.27z" stroke="#008a0e" stroke-width="3" fill="#008a0e"/><path d="M1161.48 1127.5h32a6 6 0 0 0 6-6V1070a6 6 0 0 0-6-6H499a6 6 0 0 1-6-6v-34.98" stroke="#140eb6" stroke-width="4" fill="none"/><path d="M1161.53 1129.5h-2.06v-3.47l-.02-.5h2.08zM491.83 1020.93l1.17.1 1.17-.1.8-.2v2.34h-3.95v-2.34z" stroke="#140eb6" stroke-width=".05" fill="#140eb6"/><path d="M493 978.98V640.24" stroke="#140eb6" stroke-width="4" fill="none"/><path d="M494.98 981.26l-.8-.2L493 981l-1.17.1-.8.18v-2.33h3.95z" stroke="#140eb6" stroke-width=".05" fill="#140eb6"/><path d="M493 623.98l4.63 14.26h-9.26z" stroke="#140eb6" stroke-width="4" fill="#140eb6"/><path d="M1087.5 973c0 11.83-10.28 21.42-22.88 21.42-12.67 0-22.96-9.6-22.96-21.42 0-11.83 10.3-21.42 22.96-21.42 12.6 0 22.9 9.6 22.9 21.42z" stroke="#000" stroke-width="3" fill="#dedeff"/><path d="M1097.17 942.55L1032 1008" stroke="#000" stroke-width="3" fill="none"/><path d="M1102 938l-3.08 9.66-7.07-6.16z" stroke="#000" stroke-width="3"/><path d="M1041.66 974.12h4.83l7.2-11.27 16.94 22.54 12.04-11.28h4.83" stroke="#000" stroke-width="3" fill="none"/><use xlink:href="#e" transform="matrix(1,0,0,1,1002,1013) translate(65 21.52777777777778)"/><use xlink:href="#f" transform="matrix(1,0,0,1,1002,1013) translate(31.221788194444443 53.79340277777778)"/><path d="M892 790.48v126c0 11.6 18.8 21 42 21s42-9.4 42-21v-126c0-11.6-18.8-21-42-21s-42 9.4-42 21z" stroke="#000" stroke-width="3" fill="#fff7a1"/><use xlink:href="#g" transform="matrix(1,0,0,1,892,942.475) translate(42 21.52777777777778)"/><use xlink:href="#h" transform="matrix(1,0,0,1,892,942.475) translate(12.133463541666668 53.79340277777778)"/><path d="M724 867a6 6 0 0 1 6-6h16a6 6 0 0 1 6 6v16a6 6 0 0 1-6 6h-16a6 6 0 0 1-6-6z" fill="none"/><path d="M726.8 868v14l10.2-7zm10.2 7h2zm2 0l10.2-7v14z" stroke="#000" fill="#cbc2a3"/><use xlink:href="#i" transform="matrix(1,0,0,1,704,894) translate(5.788194444444446 28.08376736111111)"/><path d="M640 756c0 15.46-12.54 28-28 28s-28-12.54-28-28 12.54-28 28-28 28 12.54 28 28z" stroke="#000" stroke-width="3" fill="#b8f5ed"/><path d="M585.8 745.7h42.38l-25.3 10.58 25.3 10.64-42.4-.62" stroke="#000" stroke-width="3" fill="none"/><use xlink:href="#j" transform="matrix(1,0,0,1,554,789) translate(58 21.52777777777778)"/><use xlink:href="#k" transform="matrix(1,0,0,1,554,789) translate(24.238064236111114 53.79340277777778)"/><path d="M921.02 497h256.24" stroke="#140eb6" stroke-width="4" fill="none"/><path d="M921.07 498.98h-2.34l.2-.8.1-1.18-.1-1.17-.2-.8h2.34z" stroke="#140eb6" stroke-width=".05" fill="#140eb6"/><path d="M1193.53 497l-14.27 4.63v-9.26z" stroke="#140eb6" stroke-width="4" fill="#140eb6"/><path d="M493 542.5V503a6 6 0 0 1 6-6h377.98" stroke="#140eb6" stroke-width="4" fill="none"/><path d="M494.98 544.64l-1.98-.14-1.98.14v-2.2h3.96zM879.07 495.83l-.1 1.17.1 1.17.2.8h-2.34v-3.95h2.34z" stroke="#140eb6" stroke-width=".05" fill="#140eb6"/><path d="M567.3 745.7h-14.33m-14.32 0H510m-14.33 0H467m-14.3 0h-28.67m-14.32 0h-28.65m-14.32 0h-28.66m-14.32 0H295.1m-14.33 0H252.1m-14.3 0h-28.67m-14.32 0h-28.65m-14.32 0H137.5" stroke="#008a0e" stroke-width="3" fill="none"/><path d="M583.07 745.7l-14.27 4.63v-9.27z" stroke="#008a0e" stroke-width="3" fill="#008a0e"/><path d="M137.54 745.7H136" stroke="#008a0e" stroke-width="3" fill="none"/><path d="M1067 997.7V1233a6 6 0 0 0 6 6h27.98" stroke="#140eb6" stroke-width="4" fill="none"/><path d="M1068.97 997.76h-3.94v-1.85h.75l3.2-.5zM1103.07 1237.83l-.1 1.17.1 1.17.2.8h-2.34v-3.94h2.34z" stroke="#140eb6" stroke-width=".05" fill="#140eb6"/><path d="M1145.02 1239h32.24" stroke="#140eb6" stroke-width="4" fill="none"/><path d="M1145.07 1240.97h-2.34l.2-.8.1-1.17-.1-1.17-.2-.8h2.34z" stroke="#140eb6" stroke-width=".05" fill="#140eb6"/><path d="M1193.53 1239l-14.27 4.63v-9.27z" stroke="#140eb6" stroke-width="4" fill="#140eb6"/><path d="M180.76 466.24a6 6 0 0 1 8.48 0l12.52 12.52a6 6 0 0 1 0 8.48l-12.52 12.52a6 6 0 0 1-8.48 0l-12.52-12.52a6 6 0 0 1 0-8.48z" stroke="#140eb6" stroke-width="3" fill="#fff"/><use xlink:href="#l" transform="matrix(1,0,0,1,169,467) translate(11.48568576388889 24.02777777777778)"/><path d="M376.76 508.24a6 6 0 0 1 8.48 0l12.52 12.52a6 6 0 0 1 0 8.48l-12.52 12.52a6 6 0 0 1-8.48 0l-12.52-12.52a6 6 0 0 1 0-8.48z" stroke="#140eb6" stroke-width="3" fill="#fff"/><use xlink:href="#m" transform="matrix(1,0,0,1,365,509) translate(9.228741319444444 24.02777777777778)"/><path d="M607.76 634.24a6 6 0 0 1 8.48 0l12.52 12.52a6 6 0 0 1 0 8.48l-12.52 12.52a6 6 0 0 1-8.48 0l-12.52-12.52a6 6 0 0 1 0-8.48z" stroke="#140eb6" stroke-width="3" fill="#fff"/><use xlink:href="#n" transform="matrix(1,0,0,1,596,635) translate(9.14193576388889 24.02777777777778)"/><path d="M894.76 480.24a6 6 0 0 1 8.48 0l12.52 12.52a6 6 0 0 1 0 8.48l-12.52 12.52a6 6 0 0 1-8.48 0l-12.52-12.52a6 6 0 0 1 0-8.48z" stroke="#140eb6" stroke-width="3" fill="#fff"/><use xlink:href="#o" transform="matrix(1,0,0,1,883,481) translate(8.827265625 24.02777777777778)"/><path d="M656.76 858.24a6 6 0 0 1 8.48 0l12.52 12.52a6 6 0 0 1 0 8.48l-12.52 12.52a6 6 0 0 1-8.48 0l-12.52-12.52a6 6 0 0 1 0-8.48z" stroke="#140eb6" stroke-width="3" fill="#fff"/><use xlink:href="#p" transform="matrix(1,0,0,1,645,859) translate(9.250442708333333 24.02777777777778)"/><path d="M810.76 858.24a6 6 0 0 1 8.48 0l12.52 12.52a6 6 0 0 1 0 8.48l-12.52 12.52a6 6 0 0 1-8.48 0l-12.52-12.52a6 6 0 0 1 0-8.48z" stroke="#140eb6" stroke-width="3" fill="#fff"/><use xlink:href="#q" transform="matrix(1,0,0,1,799,859) translate(9.114809027777778 24.02777777777778)"/><path d="M1060.58 802.24a6 6 0 0 1 8.5 0l12.5 12.52a6 6 0 0 1 0 8.48l-12.5 12.52a6 6 0 0 1-8.5 0l-12.5-12.52a6 6 0 0 1 0-8.48z" stroke="#140eb6" stroke-width="3" fill="#fff"/><use xlink:href="#r" transform="matrix(1,0,0,1,1048.8267146167668,803) translate(9.717022569444444 24.02777777777778)"/><path d="M929.76 998.24a6 6 0 0 1 8.48 0l12.52 12.52a6 6 0 0 1 0 8.48l-12.52 12.52a6 6 0 0 1-8.48 0l-12.52-12.52a6 6 0 0 1 0-8.48z" stroke="#140eb6" stroke-width="3" fill="#fff"/><use xlink:href="#s" transform="matrix(1,0,0,1,918,999) translate(9.131085069444444 24.02777777777778)"/><path d="M1118.76 1222.24a6 6 0 0 1 8.48 0l12.52 12.52a6 6 0 0 1 0 8.48l-12.52 12.52a6 6 0 0 1-8.48 0l-12.52-12.52a6 6 0 0 1 0-8.48z" stroke="#140eb6" stroke-width="3" fill="#fff"/><g><use xlink:href="#t" transform="matrix(1,0,0,1,1107,1223) translate(9.114809027777778 24.02777777777778)"/></g><path d="M488.76 984.24a6 6 0 0 1 8.48 0l12.52 12.52a6 6 0 0 1 0 8.48l-12.52 12.52a6 6 0 0 1-8.48 0l-12.52-12.52a6 6 0 0 1 0-8.48z" stroke="#140eb6" stroke-width="3" fill="#fff"/><g><use xlink:href="#u" transform="matrix(1,0,0,1,477,985) translate(4.471137152777779 24.08376736111111)"/></g><defs><path d="M180 0v-1490h510c348 0 508 209 508 474 0 266-160 477-507 477H370V0H180zm190-706h312c236 0 327-133 327-310 0-176-91-307-329-307H370v617" id="v"/><path d="M798-719v166H144v-166h654" id="w"/><path d="M653-1490V0H466v-1314h-10L96-1047v-204l324-239h233" id="x"/><path d="M646 20c-332 0-524-278-524-764 0-483 194-766 524-766s524 283 524 766c0 485-191 764-524 764zm0-166c218 0 341-220 341-598 0-380-123-601-341-601s-341 222-341 601c0 378 123 598 341 598" id="y"/><g id="a"><use transform="matrix(0.010850694444444444,0,0,0.010850694444444444,0,0)" xlink:href="#v"/><use transform="matrix(0.010850694444444444,0,0,0.010850694444444444,13.183593749999996,0)" xlink:href="#w"/><use transform="matrix(0.010850694444444444,0,0,0.010850694444444444,23.404947916666664,0)" xlink:href="#x"/><use transform="matrix(0.010850694444444444,0,0,0.010850694444444444,32.443576388888886,0)" xlink:href="#x"/><use transform="matrix(0.010850694444444444,0,0,0.010850694444444444,41.48220486111111,0)" xlink:href="#y"/></g><path d="M458 0L52-1490h194c108 439 233 855 324 1313 92-459 221-873 331-1313h216c110 438 234 854 330 1307 92-455 216-869 323-1307h196L1558 0h-221l-256-944c-26-95-50-200-73-331-22 122-44 223-73 331L680 0H458" id="z"/><path d="M154 0v-137l495-537c165-179 249-281 249-418 0-156-121-253-280-253-170 0-278 110-278 278H158c0-264 200-443 465-443 266 0 455 183 455 416 0 161-73 288-336 568L416-179v12h687V0H154" id="A"/><g id="c"><use transform="matrix(0.010850694444444444,0,0,0.010850694444444444,0,0)" xlink:href="#z"/><use transform="matrix(0.010850694444444444,0,0,0.010850694444444444,20.768229166666668,0)" xlink:href="#w"/><use transform="matrix(0.010850694444444444,0,0,0.010850694444444444,30.240885416666664,0)" xlink:href="#A"/><use transform="matrix(0.010850694444444444,0,0,0.010850694444444444,43.79340277777777,0)" xlink:href="#x"/><use transform="matrix(0.010850694444444444,0,0,0.010850694444444444,52.832031249999986,0)" xlink:href="#y"/></g><path d="M626 20c-262 0-458-168-468-396h184c12 133 134 229 284 229 180 0 311-137 311-326 0-192-136-335-323-335-92 0-196 33-255 78l-178-22 88-738h784v167H429l-51 435h8c61-51 160-87 263-87 273 0 474 211 474 499 0 286-210 496-497 496" id="B"/><g id="d"><use transform="matrix(0.010850694444444444,0,0,0.010850694444444444,0,0)" xlink:href="#v"/><use transform="matrix(0.010850694444444444,0,0,0.010850694444444444,13.183593749999996,0)" xlink:href="#w"/><use transform="matrix(0.010850694444444444,0,0,0.010850694444444444,23.404947916666664,0)" xlink:href="#B"/><use transform="matrix(0.010850694444444444,0,0,0.010850694444444444,36.9140625,0)" xlink:href="#x"/><use transform="matrix(0.010850694444444444,0,0,0.010850694444444444,45.95269097222222,0)" xlink:href="#y"/></g><g id="f"><use transform="matrix(0.010850694444444444,0,0,0.010850694444444444,0,0)" xlink:href="#z"/><use transform="matrix(0.010850694444444444,0,0,0.010850694444444444,20.768229166666668,0)" xlink:href="#w"/><use transform="matrix(0.010850694444444444,0,0,0.010850694444444444,30.989583333333336,0)" xlink:href="#B"/><use transform="matrix(0.010850694444444444,0,0,0.010850694444444444,44.49869791666667,0)" xlink:href="#x"/><use transform="matrix(0.010850694444444444,0,0,0.010850694444444444,53.5373263888889,0)" xlink:href="#y"/></g><path d="M180 0v-1490h190c0 262 1 526-3 784 217-279 467-523 702-784h249L716-845 1319 0h-225L585-716 370-489V0H180" id="C"/><path d="M120-303v-155l652-1032h231v1020h202v167h-202V0H821v-303H120zm702-167v-782h-12L323-482v12h499" id="D"/><g id="h"><use transform="matrix(0.010850694444444444,0,0,0.010850694444444444,0,0)" xlink:href="#C"/><use transform="matrix(0.010850694444444444,0,0,0.010850694444444444,12.532552083333332,0)" xlink:href="#w"/><use transform="matrix(0.010850694444444444,0,0,0.010850694444444444,22.75390625,0)" xlink:href="#D"/><use transform="matrix(0.010850694444444444,0,0,0.010850694444444444,36.67534722222222,0)" xlink:href="#x"/><use transform="matrix(0.010850694444444444,0,0,0.010850694444444444,45.71397569444444,0)" xlink:href="#y"/></g><path d="M600 0L52-1490h200c166 485 304 806 458 1336 156-533 285-846 449-1336h202L819 0H600" id="E"/><g id="i"><use transform="matrix(0.010850694444444444,0,0,0.010850694444444444,0,0)" xlink:href="#E"/><use transform="matrix(0.010850694444444444,0,0,0.010850694444444444,14.20355902777778,0)" xlink:href="#w"/><use transform="matrix(0.010850694444444444,0,0,0.010850694444444444,24.424913194444443,0)" xlink:href="#D"/><use transform="matrix(0.010850694444444444,0,0,0.010850694444444444,38.346354166666664,0)" xlink:href="#x"/><use transform="matrix(0.010850694444444444,0,0,0.010850694444444444,47.384982638888886,0)" xlink:href="#x"/></g><path d="M635 20c-292 0-500-160-510-396h192c11 142 145 229 315 229 187 0 323-105 323-260 0-161-125-274-346-274H488v-165h121c174 0 294-100 294-254 0-148-104-245-266-245-152 0-291 85-297 230H157c8-234 222-395 484-395 278 0 448 188 448 400 0 168-95 291-247 336v12c190 31 301 169 301 357 0 244-216 425-508 425" id="F"/><g id="k"><use transform="matrix(0.010850694444444444,0,0,0.010850694444444444,0,0)" xlink:href="#z"/><use transform="matrix(0.010850694444444444,0,0,0.010850694444444444,20.768229166666668,0)" xlink:href="#w"/><use transform="matrix(0.010850694444444444,0,0,0.010850694444444444,30.740017361111114,0)" xlink:href="#F"/><use transform="matrix(0.010850694444444444,0,0,0.010850694444444444,44.46614583333333,0)" xlink:href="#x"/><use transform="matrix(0.010850694444444444,0,0,0.010850694444444444,53.50477430555556,0)" xlink:href="#y"/></g><use transform="matrix(0.010850694444444444,0,0,0.010850694444444444,0,0)" xlink:href="#x" id="l"/><use transform="matrix(0.010850694444444444,0,0,0.010850694444444444,0,0)" xlink:href="#A" id="m"/><use transform="matrix(0.010850694444444444,0,0,0.010850694444444444,0,0)" xlink:href="#F" id="n"/><use transform="matrix(0.010850694444444444,0,0,0.010850694444444444,0,0)" xlink:href="#D" id="o"/><use transform="matrix(0.010850694444444444,0,0,0.010850694444444444,0,0)" xlink:href="#B" id="p"/><path d="M646 20c-249 0-524-159-524-708 0-524 209-822 547-822 250 0 431 161 467 395H950c-33-129-126-227-281-227-229 0-367 208-367 566h12c80-124 212-198 367-198 255 0 467 205 467 493 0 278-198 501-502 501zm0-167c179 0 318-148 318-334 0-182-133-328-313-328-181 0-322 156-322 330 0 176 134 332 317 332" id="G"/><use transform="matrix(0.010850694444444444,0,0,0.010850694444444444,0,0)" xlink:href="#G" id="q"/><path d="M200 0l662-1311v-12H98v-167h963v177L400 0H200" id="H"/><use transform="matrix(0.010850694444444444,0,0,0.010850694444444444,0,0)" xlink:href="#H" id="r"/><path d="M633 20c-303 0-511-173-511-416 0-188 124-348 291-378v-8c-145-37-237-174-237-332 0-227 192-396 457-396 261 0 456 169 456 396 0 158-94 295-235 332v8c162 30 291 190 291 378 0 243-212 416-512 416zm0-165c197 0 322-103 322-261 0-165-138-283-322-283-188 0-324 118-324 283 0 158 123 261 324 261zm0-703c157 0 272-101 272-252 0-149-110-246-272-246-165 0-273 97-273 246 0 151 112 252 273 252" id="I"/><use transform="matrix(0.010850694444444444,0,0,0.010850694444444444,0,0)" xlink:href="#I" id="s"/><path d="M603 20c-253 0-434-161-469-399h188c31 132 124 231 281 231 227 0 367-207 367-568h-12c-80 122-211 199-367 199-257 0-469-206-469-493 0-278 200-505 506-500 245 4 520 158 520 706 0 527-208 824-545 824zm16-703c181 0 324-157 324-332 0-171-135-328-318-328-180 0-317 148-317 332 0 183 131 328 311 328" id="J"/><use transform="matrix(0.010850694444444444,0,0,0.010850694444444444,0,0)" xlink:href="#J" id="t"/><g id="u"><use transform="matrix(0.010850694444444444,0,0,0.010850694444444444,0,0)" xlink:href="#x"/><use transform="matrix(0.010850694444444444,0,0,0.010850694444444444,9.038628472222221,0)" xlink:href="#y"/></g></defs></g></svg>